<?xml version="1.0" encoding="UTF-8" standalone="no"?>
<svg xmlns="http://www.w3.org/2000/svg"
     xmlns:xlink="http://www.w3.org/1999/xlink"
     width="610px" height="460px" viewBox="0 0 610 460">
<title>Graphic window number 0</title>
<desc>
Creator: GL2PS 1.3.2, (C) 1999-2006 Christophe Geuzaine (geuz@geuz.org)
For: Scilab
CreationDate: Thu Feb 04 15:40:30 2010
</desc>
<defs>
</defs>
<polygon fill="#ffffff" points="0,0 610,0 610,460 0,460"/>
<g>
<polyline fill="none" stroke="#000000" stroke-width="0.5" points="76.25,402.5 76.25,57.5 76.25,57.5 533.75,57.5 533.75,402.5 533.75,402.5 76.25,402.5"/>
<polyline fill="none" stroke="#000000" stroke-width="0.5" points="533.75,57.5 76.25,57.5"/>
<polyline fill="none" stroke="#000000" stroke-width="0.5" points="533.75,57.5 533.75,402.5"/>
<polyline fill="none" stroke="#000000" stroke-width="0.5" points="533.75,57.5 533.75,57.5"/>
<polygon fill="#ffffff" points="76.25,402.5 76.25,57.5 76.25,57.5"/>
<polygon fill="#ffffff" points="76.25,402.5 76.25,57.5 76.25,402.5"/>
<polygon fill="#ffffff" points="76.25,402.5 533.75,402.5 533.75,402.5"/>
<polygon fill="#ffffff" points="76.25,402.5 533.75,402.5 76.25,402.5"/>
<polygon fill="#ffffff" points="76.25,402.5 533.75,402.5 533.75,57.5"/>
<polygon fill="#ffffff" points="76.25,402.5 533.75,57.5 76.25,57.5"/>
<polyline fill="none" stroke="#0000ff" stroke-width="0.5" points="76.7075,78.4302 77.165,153.274 77.6226,178.204 78.0801,190.655 78.5376,198.114 78.9951,203.077 79.4526,206.614 79.9102,209.258 80.3677,211.308 80.8252,212.942 81.2827,214.272 81.7402,215.375 82.1973,216.302 82.6548,217.092 83.1123,217.771 83.5698,218.361 84.0273,218.876 84.4849,219.33 84.9424,219.731 85.3999,220.088 85.8574,220.406 86.3149,220.691 86.7725,220.947 87.23,221.178 87.6875,221.386 88.145,221.573 88.6025,221.743 89.0601,221.896 89.5176,222.035 89.9751,222.16 90.4326,222.272 90.8901,222.374 91.3477,222.465 91.8052,222.547 92.2627,222.619 92.7202,222.684 93.1777,222.74 93.6348,222.789 94.0923,222.831 94.5498,222.866 95.0073,222.895 95.4648,222.917 95.9224,222.935 96.3799,222.946 96.8374,222.952 97.2949,222.952 97.7524,222.947 98.21,222.938 98.6675,222.923 99.125,222.903 99.5825,222.878 100.04,222.849 100.498,222.814 100.955,222.774 101.413,222.73 101.87,222.681 102.328,222.626 102.785,222.567 103.243,222.503 103.7,222.433 104.158,222.358 104.615,222.277 105.072,222.191 105.53,222.099 105.987,222.001 106.445,221.896 106.902,221.786 107.36,221.668 107.817,221.543 108.275,221.412 108.732,221.272 109.19,221.125 109.647,220.969 110.105,220.805 110.563,220.631 111.02,220.447 111.478,220.253 111.935,220.048 112.393,219.831 112.85,219.602 113.308,219.36 113.765,219.104 114.223,218.832 114.68,218.544 115.138,218.239 115.595,217.916 116.053,217.572 116.51,217.207 116.967,216.818 117.425,216.404 117.882,215.962 118.34,215.49 118.797,214.985 119.255,214.444 119.712,213.863 120.17,213.237 120.627,212.563 121.085,211.835 121.542,211.046 122,210.189 122.458,209.257 122.915,208.238 123.373,207.121 123.83,205.892 124.288,204.533 124.745,203.025 125.203,201.343 125.66,199.456 126.118,197.325 126.575,194.9 127.033,192.121 127.49,188.903 127.947,185.137 128.405,180.675 128.862,175.305 129.32,168.727 129.777,160.486 130.235,149.869 130.692,135.688 131.15,115.804 131.607,85.9385 131.869,57.4966"/>
<polyline fill="none" stroke="#0000ff" stroke-width="0.5" points="135.117,402.503 135.268,386.121 135.725,356.268 136.183,336.398 136.64,322.235 137.098,311.639 137.555,303.421 138.013,296.869 138.47,291.528 138.928,287.097 139.385,283.367 139.842,280.186 140.3,277.447 140.757,275.066 141.215,272.981 141.672,271.144 142.13,269.514 142.587,268.062 143.045,266.763 143.502,265.596 143.96,264.545 144.417,263.595 144.875,262.735 145.333,261.955 145.79,261.246 146.248,260.601 146.705,260.014 147.163,259.48 147.62,258.994 148.078,258.552 148.535,258.15 148.993,257.786 149.45,257.456 149.908,257.159 150.365,256.892 150.822,256.653 151.28,256.44 151.737,256.253 152.195,256.09 152.652,255.95 153.11,255.831 153.567,255.733 154.025,255.656 154.482,255.598 154.94,255.559 155.397,255.538 155.855,255.535 156.313,255.55 156.77,255.582 157.228,255.631 157.685,255.697 158.143,255.78 158.6,255.88 159.058,255.997 159.515,256.131 159.973,256.282 160.43,256.45 160.888,256.635 161.345,256.839 161.803,257.06 162.26,257.3 162.717,257.559 163.175,257.837 163.632,258.135 164.09,258.455 164.547,258.795 165.005,259.158 165.462,259.543 165.92,259.953 166.377,260.388 166.835,260.849 167.292,261.338 167.75,261.856 168.208,262.404 168.665,262.984 169.123,263.599 169.58,264.249 170.038,264.938 170.495,265.667 170.953,266.438 171.41,267.257 171.868,268.125 172.325,269.045 172.783,270.022 173.24,271.061 173.697,272.165 174.155,273.341 174.612,274.594 175.07,275.931 175.527,277.359 175.985,278.888 176.442,280.526 176.9,282.285 177.357,284.177 177.815,286.216 178.272,288.419 178.73,290.804 179.188,293.393 179.645,296.212 180.103,299.291 180.56,302.665 181.018,306.375 181.475,310.475 181.933,315.023 182.39,320.096 182.848,325.786 183.305,332.208 183.763,339.51 184.22,347.881 184.678,357.566 185.135,368.895 185.592,382.317 186.05,398.459 186.144,402.503"/>
<polyline fill="none" stroke="#0000ff" stroke-width="0.5" points="195.886,57.4966 196.115,64.189 196.572,75.4507 197.03,85.062 197.487,93.353 197.945,100.57 198.402,106.902 198.86,112.495 199.317,117.464 199.775,121.903 200.232,125.887 200.69,129.477 201.147,132.722 201.605,135.666 202.063,138.343 202.52,140.783 202.978,143.012 203.435,145.052 203.893,146.921 204.35,148.635 204.808,150.209 205.265,151.654 205.723,152.981 206.18,154.201 206.638,155.319 207.095,156.346 207.553,157.285 208.01,158.145 208.467,158.928 208.925,159.641 209.382,160.287 209.84,160.87 210.297,161.393 210.755,161.858 211.212,162.269 211.67,162.626 212.127,162.934 212.585,163.193 213.042,163.405 213.5,163.571 213.958,163.692 214.415,163.769 214.873,163.804 215.33,163.796 215.788,163.746 216.245,163.655 216.703,163.523 217.16,163.35 217.618,163.135 218.075,162.879 218.533,162.582 218.99,162.242 219.447,161.859 219.905,161.434 220.362,160.964 220.82,160.449 221.277,159.888 221.735,159.28 222.192,158.623 222.65,157.915 223.107,157.154 223.565,156.339 224.022,155.468 224.48,154.538 224.938,153.546 225.395,152.489 225.853,151.365 226.31,150.169 226.768,148.898 227.225,147.548 227.683,146.112 228.14,144.588 228.598,142.968 229.055,141.246 229.513,139.416 229.97,137.468 230.428,135.396 230.885,133.189 231.342,130.836 231.8,128.326 232.257,125.646 232.715,122.778 233.172,119.708 233.63,116.417 234.087,112.881 234.545,109.076 235.002,104.975 235.46,100.543 235.917,95.7446 236.375,90.5352 236.833,84.8628 237.29,78.6689 237.748,71.8818 238.205,64.4175 238.589,57.4966"/>
<polyline fill="none" stroke="#0000ff" stroke-width="0.5" points="258.646,402.503 258.792,400.557 259.25,394.983 259.708,389.876 260.165,385.186 260.623,380.867 261.08,376.883 261.538,373.202 261.995,369.794 262.453,366.635 262.91,363.704 263.368,360.981 263.825,358.451 264.283,356.097 264.74,353.906 265.197,351.867 265.655,349.969 266.112,348.203 266.57,346.56 267.027,345.033 267.485,343.614 267.942,342.298 268.4,341.08 268.857,339.954 269.315,338.915 269.772,337.96 270.23,337.085 270.688,336.287 271.145,335.563 271.603,334.91 272.06,334.325 272.518,333.808 272.975,333.356 273.433,332.967 273.89,332.641 274.348,332.375 274.805,332.17 275.263,332.024 275.72,331.937 276.178,331.909 276.635,331.938 277.092,332.026 277.55,332.173 278.007,332.378 278.465,332.644 278.922,332.968 279.38,333.355 279.837,333.803 280.295,334.315 280.752,334.893 281.21,335.537 281.667,336.251 282.125,337.036 282.583,337.895 283.04,338.831 283.498,339.847 283.955,340.947 284.413,342.135 284.87,343.416 285.328,344.794 285.785,346.275 286.243,347.865 286.7,349.572 287.158,351.401 287.615,353.363 288.072,355.467 288.53,357.723 288.987,360.142 289.445,362.739 289.902,365.528 290.36,368.526 290.817,371.752 291.275,375.228 291.732,378.978 292.19,383.031 292.647,387.419 293.105,392.18 293.563,397.358 293.979,402.503"/>
<polyline fill="none" stroke="#0000ff" stroke-width="0.5" points="313.882,57.4966 314.15,62.9258 314.607,71.3086 315.065,78.9155 315.522,85.8477 315.98,92.1899 316.438,98.0132 316.895,103.377 317.353,108.334 317.81,112.927 318.268,117.193 318.725,121.167 319.183,124.875 319.64,128.343 320.098,131.594 320.555,134.646 321.013,137.516 321.47,140.219 321.928,142.771 322.385,145.181 322.842,147.461 323.3,149.622 323.757,151.672 324.215,153.618 324.672,155.469 325.13,157.23 325.587,158.909 326.045,160.509 326.502,162.037 326.96,163.497 327.417,164.892 327.875,166.228 328.333,167.507 328.79,168.733 329.248,169.909 329.705,171.037 330.163,172.121 330.62,173.162 331.078,174.164 331.535,175.127 331.993,176.054 332.45,176.947 332.908,177.808 333.365,178.638 333.822,179.438 334.28,180.211 334.737,180.957 335.195,181.677 335.652,182.374 336.11,183.046 336.567,183.697 337.025,184.327 337.482,184.936 337.94,185.525 338.397,186.097 338.855,186.65 339.313,187.186 339.77,187.705 340.228,188.209 340.685,188.698 341.143,189.171 341.6,189.631 342.058,190.078 342.515,190.511 342.973,190.932 343.43,191.34 343.888,191.737 344.345,192.123 344.803,192.498 345.26,192.862 345.717,193.216 346.175,193.56 346.632,193.895 347.09,194.221 347.547,194.538 348.005,194.846 348.462,195.146 348.92,195.437 349.377,195.721 349.835,195.998 350.292,196.267 350.75,196.528 351.208,196.783 351.665,197.032 352.123,197.273 352.58,197.509 353.038,197.738 353.495,197.961 353.953,198.179 354.41,198.39 354.868,198.597 355.325,198.797 355.783,198.993 356.24,199.184 356.697,199.369 357.155,199.55 357.612,199.726 358.07,199.897 358.527,200.064 358.985,200.227 359.442,200.385 359.9,200.539 360.357,200.689 360.815,200.835 361.272,200.977 361.73,201.115 362.188,201.25 362.645,201.381 363.103,201.508 363.56,201.632 364.018,201.753 364.475,201.87 364.933,201.984 365.39,202.094 365.848,202.202 366.305,202.307 366.763,202.408 367.22,202.506 367.678,202.602 368.135,202.695 368.592,202.785 369.05,202.872 369.507,202.956 369.965,203.038 370.422,203.117 370.88,203.194 371.337,203.268 371.795,203.34 372.252,203.409 372.71,203.476 373.167,203.541 373.625,203.603 374.083,203.663 374.54,203.72 374.998,203.776 375.455,203.829 375.913,203.88 376.37,203.929 376.828,203.976 377.285,204.021 377.743,204.063 378.2,204.104 378.658,204.143 379.115,204.18 379.572,204.215 380.03,204.248 380.487,204.279 380.945,204.309 381.402,204.336 381.86,204.361 382.317,204.385 382.775,204.407 383.232,204.427 383.69,204.446 384.147,204.463 384.605,204.478 385.063,204.491 385.52,204.503 385.978,204.513 386.435,204.521 386.893,204.528 387.35,204.533 387.808,204.537 388.265,204.539 388.723,204.539 389.18,204.538 389.638,204.535 390.095,204.53 390.553,204.524 391.01,204.517 391.467,204.508 391.925,204.498 392.382,204.486 392.84,204.472 393.297,204.457 393.755,204.441 394.212,204.423 394.67,204.403 395.127,204.383 395.585,204.36 396.042,204.336 396.5,204.312 396.958,204.285 397.415,204.257 397.873,204.227 398.33,204.196 398.788,204.164 399.245,204.13 399.703,204.095 400.16,204.059 400.618,204.021 401.075,203.981 401.533,203.94 401.99,203.898 402.447,203.854 402.905,203.81 403.362,203.763 403.82,203.715 404.277,203.667 404.735,203.616 405.192,203.564 405.65,203.51 406.107,203.456 406.565,203.399 407.022,203.342 407.48,203.283 407.938,203.223 408.395,203.161 408.853,203.098 409.31,203.033 409.768,202.967 410.225,202.9 410.683,202.831 411.14,202.761 411.598,202.689 412.055,202.616 412.513,202.542 412.97,202.466 413.428,202.389 413.885,202.31 414.342,202.229 414.8,202.148 415.257,202.064 415.715,201.98 416.172,201.894 416.63,201.807 417.087,201.717 417.545,201.627 418.002,201.535 418.46,201.441 418.917,201.347 419.375,201.25 419.833,201.152 420.29,201.052 420.748,200.952 421.205,200.849 421.663,200.745 422.12,200.639 422.578,200.532 423.035,200.423 423.493,200.313 423.95,200.201 424.408,200.087 424.865,199.972 425.322,199.855 425.78,199.736 426.237,199.616 426.695,199.495 427.152,199.371 427.61,199.246 428.067,199.12 428.525,198.991 428.982,198.861 429.44,198.729 429.897,198.596 430.355,198.46 430.813,198.323 431.27,198.185 431.728,198.044 432.185,197.901 432.643,197.757 433.1,197.611 433.558,197.463 434.015,197.314 434.473,197.162 434.93,197.009 435.388,196.854 435.845,196.696 436.303,196.537 436.76,196.376 437.217,196.213 437.675,196.048 438.132,195.881 438.59,195.712 439.047,195.542 439.505,195.369 439.962,195.194 440.42,195.017 440.877,194.837 441.335,194.656 441.792,194.473 442.25,194.288 442.708,194.1 443.165,193.91 443.623,193.718 444.08,193.524 444.538,193.328 444.995,193.129 445.453,192.928 445.91,192.725 446.368,192.52 446.825,192.312 447.283,192.101 447.74,191.889 448.197,191.674 448.655,191.456 449.112,191.236 449.57,191.014 450.027,190.789 450.485,190.562 450.942,190.332 451.4,190.1 451.857,189.865 452.315,189.627 452.772,189.387 453.23,189.144 453.688,188.898 454.145,188.65 454.603,188.399 455.06,188.145 455.518,187.889 455.975,187.629 456.433,187.367 456.89,187.102 457.348,186.833 457.805,186.563 458.263,186.289 458.72,186.011 459.178,185.731 459.635,185.448 460.092,185.162 460.55,184.873 461.007,184.581 461.465,184.285 461.922,183.986 462.38,183.684 462.837,183.378 463.295,183.07 463.752,182.758 464.21,182.442 464.667,182.123 465.125,181.801 465.583,181.475 466.04,181.146 466.498,180.813 466.955,180.476 467.413,180.136 467.87,179.792 468.328,179.444 468.785,179.093 469.243,178.737 469.7,178.378 470.158,178.016 470.615,177.648 471.072,177.278 471.53,176.903 471.987,176.523 472.445,176.141 472.902,175.753 473.36,175.362 473.817,174.966 474.275,174.566 474.732,174.162 475.19,173.753 475.647,173.34 476.105,172.922 476.563,172.5 477.02,172.073 477.478,171.642 477.935,171.206 478.393,170.765 478.85,170.319 479.308,169.869 479.765,169.413 480.223,168.953 480.68,168.488 481.138,168.017 481.595,167.542 482.053,167.061 482.51,166.575 482.967,166.083 483.425,165.587 483.882,165.084 484.34,164.577 484.797,164.064 485.255,163.545 485.712,163.021 486.17,162.491 486.627,161.955 487.085,161.413 487.542,160.865 488,160.311 488.458,159.751 488.915,159.185 489.373,158.613 489.83,158.034 490.288,157.449 490.745,156.858 491.203,156.26 491.66,155.655 492.118,155.044 492.575,154.426 493.033,153.801 493.49,153.169 493.947,152.531 494.405,151.885 494.862,151.232 495.32,150.572 495.777,149.905 496.235,149.229 496.692,148.547 497.15,147.857 497.607,147.16 498.065,146.454 498.522,145.741 498.98,145.02 499.438,144.291 499.895,143.553 500.353,142.807 500.81,142.053 501.268,141.291 501.725,140.52 502.183,139.74 502.64,138.951 503.098,138.154 503.555,137.348 504.013,136.532 504.47,135.708 504.928,134.874 505.385,134.031 505.842,133.178 506.3,132.316 506.757,131.444 507.215,130.562 507.672,129.669 508.13,128.768 508.587,127.855 509.045,126.933 509.502,126 509.96,125.056 510.417,124.101 510.875,123.136 511.333,122.159 511.79,121.171 512.248,120.173 512.705,119.163 513.163,118.141 513.62,117.107 514.078,116.062 514.535,115.004 514.993,113.935 515.45,112.853 515.908,111.759 516.365,110.652 516.822,109.532 517.28,108.4 517.737,107.254 518.195,106.095 518.652,104.923 519.11,103.737 519.567,102.538 520.025,101.325 520.482,100.097 520.94,98.855 521.397,97.5991 521.855,96.3281 522.313,95.0425 522.77,93.7417 523.228,92.4263 523.685,91.0947 524.143,89.748 524.6,88.3857 525.058,87.0073 525.515,85.6128 525.973,84.2017 526.43,82.7739 526.888,81.3301 527.345,79.8687 527.803,78.3901 528.26,76.894 528.717,75.3804 529.175,73.8491 529.632,72.2993 530.09,70.7314 530.547,69.145 531.005,67.54 531.462,65.9155 531.92,64.272 532.377,62.6089 532.835,60.9263 533.292,59.2231 533.75,57.5"/>
<polyline fill="none" stroke="#000000" stroke-width="0.5" points="76.25,402.5 76.25,57.5"/>
<polyline fill="none" stroke="#000000" stroke-width="0.5" points="76.25,402.5 69.395,402.5"/>
<polyline fill="none" stroke="#000000" stroke-width="0.5" points="76.25,345 69.395,345"/>
<polyline fill="none" stroke="#000000" stroke-width="0.5" points="76.25,287.5 69.395,287.5"/>
<polyline fill="none" stroke="#000000" stroke-width="0.5" points="76.25,230 69.395,230"/>
<polyline fill="none" stroke="#000000" stroke-width="0.5" points="76.25,172.5 69.395,172.5"/>
<polyline fill="none" stroke="#000000" stroke-width="0.5" points="76.25,115 69.395,115"/>
<polyline fill="none" stroke="#000000" stroke-width="0.5" points="76.25,57.5 69.395,57.5"/>
<polyline fill="none" stroke="#000000" stroke-width="0.5" points="76.25,388.125 72.1372,388.125"/>
<polyline fill="none" stroke="#000000" stroke-width="0.5" points="76.25,373.75 72.1372,373.75"/>
<polyline fill="none" stroke="#000000" stroke-width="0.5" points="76.25,359.375 72.1372,359.375"/>
<polyline fill="none" stroke="#000000" stroke-width="0.5" points="76.25,330.625 72.1372,330.625"/>
<polyline fill="none" stroke="#000000" stroke-width="0.5" points="76.25,316.25 72.1372,316.25"/>
<polyline fill="none" stroke="#000000" stroke-width="0.5" points="76.25,301.875 72.1372,301.875"/>
<polyline fill="none" stroke="#000000" stroke-width="0.5" points="76.25,273.125 72.1372,273.125"/>
<polyline fill="none" stroke="#000000" stroke-width="0.5" points="76.25,258.75 72.1372,258.75"/>
<polyline fill="none" stroke="#000000" stroke-width="0.5" points="76.25,244.375 72.1372,244.375"/>
<polyline fill="none" stroke="#000000" stroke-width="0.5" points="76.25,215.625 72.1372,215.625"/>
<polyline fill="none" stroke="#000000" stroke-width="0.5" points="76.25,201.25 72.1372,201.25"/>
<polyline fill="none" stroke="#000000" stroke-width="0.5" points="76.25,186.875 72.1372,186.875"/>
<polyline fill="none" stroke="#000000" stroke-width="0.5" points="76.25,158.125 72.1372,158.125"/>
<polyline fill="none" stroke="#000000" stroke-width="0.5" points="76.25,143.75 72.1372,143.75"/>
<polyline fill="none" stroke="#000000" stroke-width="0.5" points="76.25,129.375 72.1372,129.375"/>
<polyline fill="none" stroke="#000000" stroke-width="0.5" points="76.25,100.625 72.1372,100.625"/>
<polyline fill="none" stroke="#000000" stroke-width="0.5" points="76.25,86.25 72.1372,86.25"/>
<polyline fill="none" stroke="#000000" stroke-width="0.5" points="76.25,71.875 72.1372,71.875"/>
<text fill="#000000" x="58" y="407" transform="rotate(-0, 58, 407)" font-size="10" font-family="SansSerif" font-style="normal" font-weight="normal">-6</text>
<text fill="#000000" x="58" y="350" transform="rotate(-0, 58, 350)" font-size="10" font-family="SansSerif" font-style="normal" font-weight="normal">-4</text>
<text fill="#000000" x="58" y="292" transform="rotate(-0, 58, 292)" font-size="10" font-family="SansSerif" font-style="normal" font-weight="normal">-2</text>
<text fill="#000000" x="61" y="235" transform="rotate(-0, 61, 235)" font-size="10" font-family="SansSerif" font-style="normal" font-weight="normal">0</text>
<text fill="#000000" x="61" y="177" transform="rotate(-0, 61, 177)" font-size="10" font-family="SansSerif" font-style="normal" font-weight="normal">2</text>
<text fill="#000000" x="61" y="120" transform="rotate(-0, 61, 120)" font-size="10" font-family="SansSerif" font-style="normal" font-weight="normal">4</text>
<text fill="#000000" x="61" y="62" transform="rotate(-0, 61, 62)" font-size="10" font-family="SansSerif" font-style="normal" font-weight="normal">6</text>
<polyline fill="none" stroke="#000000" stroke-width="0.5" points="76.25,402.5 533.75,402.5"/>
<polyline fill="none" stroke="#000000" stroke-width="0.5" points="76.25,402.5 76.25,407.675"/>
<polyline fill="none" stroke="#000000" stroke-width="0.5" points="133.438,402.5 133.438,407.675"/>
<polyline fill="none" stroke="#000000" stroke-width="0.5" points="190.625,402.5 190.625,407.675"/>
<polyline fill="none" stroke="#000000" stroke-width="0.5" points="247.813,402.5 247.813,407.675"/>
<polyline fill="none" stroke="#000000" stroke-width="0.5" points="305,402.5 305,407.675"/>
<polyline fill="none" stroke="#000000" stroke-width="0.5" points="362.188,402.5 362.188,407.675"/>
<polyline fill="none" stroke="#000000" stroke-width="0.5" points="419.375,402.5 419.375,407.675"/>
<polyline fill="none" stroke="#000000" stroke-width="0.5" points="476.563,402.5 476.563,407.675"/>
<polyline fill="none" stroke="#000000" stroke-width="0.5" points="533.75,402.5 533.75,407.675"/>
<polyline fill="none" stroke="#000000" stroke-width="0.5" points="104.844,402.5 104.844,405.605"/>
<polyline fill="none" stroke="#000000" stroke-width="0.5" points="162.031,402.5 162.031,405.605"/>
<polyline fill="none" stroke="#000000" stroke-width="0.5" points="219.219,402.5 219.219,405.605"/>
<polyline fill="none" stroke="#000000" stroke-width="0.5" points="276.406,402.5 276.406,405.605"/>
<polyline fill="none" stroke="#000000" stroke-width="0.5" points="333.594,402.5 333.594,405.605"/>
<polyline fill="none" stroke="#000000" stroke-width="0.5" points="390.781,402.5 390.781,405.605"/>
<polyline fill="none" stroke="#000000" stroke-width="0.5" points="447.969,402.5 447.969,405.605"/>
<polyline fill="none" stroke="#000000" stroke-width="0.5" points="505.156,402.5 505.156,405.605"/>
<text fill="#000000" x="71" y="419" transform="rotate(-0, 71, 419)" font-size="10" font-family="SansSerif" font-style="normal" font-weight="normal">-4</text>
<text fill="#000000" x="128" y="419" transform="rotate(-0, 128, 419)" font-size="10" font-family="SansSerif" font-style="normal" font-weight="normal">-3</text>
<text fill="#000000" x="186" y="419" transform="rotate(-0, 186, 419)" font-size="10" font-family="SansSerif" font-style="normal" font-weight="normal">-2</text>
<text fill="#000000" x="243" y="419" transform="rotate(-0, 243, 419)" font-size="10" font-family="SansSerif" font-style="normal" font-weight="normal">-1</text>
<text fill="#000000" x="302" y="419" transform="rotate(-0, 302, 419)" font-size="10" font-family="SansSerif" font-style="normal" font-weight="normal">0</text>
<text fill="#000000" x="360" y="419" transform="rotate(-0, 360, 419)" font-size="10" font-family="SansSerif" font-style="normal" font-weight="normal">1</text>
<text fill="#000000" x="416" y="419" transform="rotate(-0, 416, 419)" font-size="10" font-family="SansSerif" font-style="normal" font-weight="normal">2</text>
<text fill="#000000" x="473" y="419" transform="rotate(-0, 473, 419)" font-size="10" font-family="SansSerif" font-style="normal" font-weight="normal">3</text>
<text fill="#000000" x="530" y="419" transform="rotate(-0, 530, 419)" font-size="10" font-family="SansSerif" font-style="normal" font-weight="normal">4</text>
</g>
</svg>
