<?xml version="1.0" encoding="UTF-8" standalone="no"?>
<svg xmlns="http://www.w3.org/2000/svg"
     xmlns:xlink="http://www.w3.org/1999/xlink"
     width="610px" height="460px" viewBox="0 0 610 460">
<title>Graphic window number 0</title>
<desc>
Creator: GL2PS 1.3.2, (C) 1999-2006 Christophe Geuzaine (geuz@geuz.org)
For: Scilab
CreationDate: Tue Dec 08 11:35:59 2009
</desc>
<defs>
</defs>
<polygon fill="#ffffff" points="0,0 610,0 610,460 0,460"/>
<g>
<polygon fill="#ffffff" points="76.25,402.5 533.75,57.5 76.25,57.5"/>
<polygon fill="#ffffff" points="76.25,402.5 533.75,402.5 533.75,57.5"/>
<polygon fill="#ffffff" points="76.25,402.5 76.25,57.5 76.25,57.5"/>
<polygon fill="#ffffff" points="76.25,402.5 533.75,402.5 533.75,402.5"/>
<polygon fill="#ffffff" points="76.25,402.5 76.25,57.5 76.25,402.5"/>
<polygon fill="#ffffff" points="76.25,402.5 533.75,402.5 76.25,402.5"/>
<text fill="#000000" x="474" y="419" transform="rotate(-0, 474, 419)" font-size="10" font-family="SansSerif" font-style="normal" font-weight="normal">160</text>
<text fill="#000000" x="321" y="419" transform="rotate(-0, 321, 419)" font-size="10" font-family="SansSerif" font-style="normal" font-weight="normal">100</text>
<text fill="#000000" x="525" y="419" transform="rotate(-0, 525, 419)" font-size="10" font-family="SansSerif" font-style="normal" font-weight="normal">180</text>
<text fill="#000000" x="171" y="419" transform="rotate(-0, 171, 419)" font-size="10" font-family="SansSerif" font-style="normal" font-weight="normal">40</text>
<text fill="#000000" x="302" y="430" transform="rotate(0, 302, 430)" font-size="10" font-family="SansSerif" font-style="normal" font-weight="normal">n</text>
<text fill="#000000" x="423" y="419" transform="rotate(-0, 423, 419)" font-size="10" font-family="SansSerif" font-style="normal" font-weight="normal">140</text>
<text fill="#000000" x="222" y="419" transform="rotate(-0, 222, 419)" font-size="10" font-family="SansSerif" font-style="normal" font-weight="normal">60</text>
<text fill="#000000" x="372" y="419" transform="rotate(-0, 372, 419)" font-size="10" font-family="SansSerif" font-style="normal" font-weight="normal">120</text>
<text fill="#000000" x="41" y="245" transform="rotate(270, 41, 245)" font-size="10" font-family="SansSerif" font-style="normal" font-weight="normal">log(n!)</text>
<text fill="#000000" x="121" y="419" transform="rotate(-0, 121, 419)" font-size="10" font-family="SansSerif" font-style="normal" font-weight="normal">20</text>
<text fill="#000000" x="73" y="419" transform="rotate(-0, 73, 419)" font-size="10" font-family="SansSerif" font-style="normal" font-weight="normal">0</text>
<text fill="#000000" x="49" y="63" transform="rotate(-0, 49, 63)" font-size="10" font-family="SansSerif" font-style="normal" font-weight="normal">800</text>
<text fill="#000000" x="49" y="106" transform="rotate(-0, 49, 106)" font-size="10" font-family="SansSerif" font-style="normal" font-weight="normal">700</text>
<text fill="#000000" x="49" y="149" transform="rotate(-0, 49, 149)" font-size="10" font-family="SansSerif" font-style="normal" font-weight="normal">600</text>
<text fill="#000000" x="49" y="192" transform="rotate(-0, 49, 192)" font-size="10" font-family="SansSerif" font-style="normal" font-weight="normal">500</text>
<text fill="#000000" x="49" y="235" transform="rotate(-0, 49, 235)" font-size="10" font-family="SansSerif" font-style="normal" font-weight="normal">400</text>
<text fill="#000000" x="49" y="278" transform="rotate(-0, 49, 278)" font-size="10" font-family="SansSerif" font-style="normal" font-weight="normal">300</text>
<text fill="#000000" x="49" y="321" transform="rotate(-0, 49, 321)" font-size="10" font-family="SansSerif" font-style="normal" font-weight="normal">200</text>
<text fill="#000000" x="50" y="364" transform="rotate(-0, 50, 364)" font-size="10" font-family="SansSerif" font-style="normal" font-weight="normal">100</text>
<text fill="#000000" x="61" y="407" transform="rotate(-0, 61, 407)" font-size="10" font-family="SansSerif" font-style="normal" font-weight="normal">0</text>
<text fill="#000000" x="273" y="419" transform="rotate(-0, 273, 419)" font-size="10" font-family="SansSerif" font-style="normal" font-weight="normal">80</text>
<polyline fill="none" stroke="#000000" stroke-width="1" points="76.25,402.5 76.25,407.675"/>
<polyline fill="none" stroke="#000000" stroke-width="1" points="508.333,402.5 508.333,405.605"/>
<polyline fill="none" stroke="#000000" stroke-width="1" points="457.5,402.5 457.5,405.605"/>
<polyline fill="none" stroke="#000000" stroke-width="1" points="406.667,402.5 406.667,405.605"/>
<polyline fill="none" stroke="#000000" stroke-width="1" points="355.833,402.5 355.833,405.605"/>
<polyline fill="none" stroke="#000000" stroke-width="1" points="305,402.5 305,405.605"/>
<polyline fill="none" stroke="#000000" stroke-width="1" points="254.167,402.5 254.167,405.605"/>
<polyline fill="none" stroke="#000000" stroke-width="1" points="203.333,402.5 203.333,405.605"/>
<polyline fill="none" stroke="#000000" stroke-width="1" points="152.5,402.5 152.5,405.605"/>
<polyline fill="none" stroke="#000000" stroke-width="1" points="101.667,402.5 101.667,405.605"/>
<polyline fill="none" stroke="#000000" stroke-width="1" points="533.75,402.5 533.75,407.675"/>
<polyline fill="none" stroke="#000000" stroke-width="1" points="482.917,402.5 482.917,407.675"/>
<polyline fill="none" stroke="#000000" stroke-width="1" points="432.083,402.5 432.083,407.675"/>
<polyline fill="none" stroke="#000000" stroke-width="1" points="381.25,402.5 381.25,407.675"/>
<polyline fill="none" stroke="#000000" stroke-width="1" points="330.417,402.5 330.417,407.675"/>
<polyline fill="none" stroke="#000000" stroke-width="1" points="279.583,402.5 279.583,407.675"/>
<polyline fill="none" stroke="#000000" stroke-width="1" points="228.75,402.5 228.75,407.675"/>
<polyline fill="none" stroke="#000000" stroke-width="1" points="177.917,402.5 177.917,407.675"/>
<polyline fill="none" stroke="#000000" stroke-width="1" points="127.083,402.5 127.083,407.675"/>
<polyline fill="none" stroke="#000000" stroke-width="1" points="76.25,402.5 76.25,57.5"/>
<polyline fill="none" stroke="#000000" stroke-width="1" points="76.25,402.5 533.75,402.5"/>
<polyline fill="none" stroke="#000000" stroke-width="1" points="76.25,79.0625 72.1372,79.0625"/>
<polyline fill="none" stroke="#000000" stroke-width="1" points="76.25,122.188 72.1372,122.188"/>
<polyline fill="none" stroke="#000000" stroke-width="1" points="76.25,165.313 72.1372,165.313"/>
<polyline fill="none" stroke="#000000" stroke-width="1" points="76.25,208.438 72.1372,208.438"/>
<polyline fill="none" stroke="#000000" stroke-width="1" points="76.25,251.563 72.1372,251.563"/>
<polyline fill="none" stroke="#000000" stroke-width="1" points="76.25,294.688 72.1372,294.688"/>
<polyline fill="none" stroke="#000000" stroke-width="1" points="76.25,337.813 72.1372,337.813"/>
<polyline fill="none" stroke="#000000" stroke-width="1" points="76.25,380.938 72.1372,380.938"/>
<polyline fill="none" stroke="#000000" stroke-width="1" points="76.25,57.5 69.395,57.5"/>
<polyline fill="none" stroke="#000000" stroke-width="1" points="76.25,100.625 69.395,100.625"/>
<polyline fill="none" stroke="#000000" stroke-width="1" points="76.25,143.75 69.395,143.75"/>
<polyline fill="none" stroke="#000000" stroke-width="1" points="76.25,186.875 69.395,186.875"/>
<polyline fill="none" stroke="#000000" stroke-width="1" points="76.25,230 69.395,230"/>
<polyline fill="none" stroke="#000000" stroke-width="1" points="76.25,273.125 69.395,273.125"/>
<polyline fill="none" stroke="#000000" stroke-width="1" points="76.25,316.25 69.395,316.25"/>
<polyline fill="none" stroke="#000000" stroke-width="1" points="76.25,359.375 69.395,359.375"/>
<polyline fill="none" stroke="#000000" stroke-width="1" points="76.25,402.5 69.395,402.5"/>
<polyline fill="none" stroke="#000000" stroke-width="1" points="76.25,57.5 533.75,57.5 533.75,402.5"/>
<polyline fill="none" stroke="#0000ff" stroke-width="1" points="101.15,396.979 101.58,396.979 102.01,395.986 102.44,395.986 102.87,395.986 103.3,395.986 103.73,395.986 104.16,395.986 104.59,394.952 105.02,394.952 105.45,394.952 105.88,394.952 106.31,394.952 106.74,394.952 107.17,393.88 107.6,393.88 108.03,393.88 108.46,393.88 108.89,393.88 109.32,392.774 109.75,392.774 110.18,392.774 110.609,392.774 111.04,392.774 111.47,392.774 111.899,391.636 112.33,391.636 112.759,391.636 113.189,391.636 113.619,391.636 114.049,391.636 114.479,390.468 114.909,390.468 115.339,390.468 115.769,390.468 116.199,390.468 116.629,390.468 117.059,389.273 117.489,389.273 117.919,389.273 118.349,389.273 118.779,389.273 119.209,389.273 119.639,388.051 120.069,388.051 120.499,388.051 120.929,388.051 121.359,388.051 121.789,388.051 122.219,386.805 122.649,386.805 123.079,386.805 123.509,386.805 123.938,386.805 124.369,386.805 124.799,385.535 125.229,385.535 125.659,385.535 126.088,385.535 126.519,385.535 126.949,385.535 127.378,384.243 127.809,384.243 128.238,384.243 128.668,384.243 129.098,384.243 129.528,384.243 129.958,382.93 130.388,382.93 130.818,382.93 131.248,382.93 131.678,382.93 132.108,382.93 132.538,381.597 132.968,381.597 133.398,381.597 133.828,381.597 134.258,381.597 134.688,381.597 135.118,380.245 135.548,380.245 135.978,380.245 136.408,380.245 136.838,380.245 137.268,378.874 137.698,378.874 138.128,378.874 138.558,378.874 138.988,378.874 139.417,378.874 139.848,377.486 140.278,377.486 140.708,377.486 141.138,377.486 141.567,377.486 141.998,377.486 142.427,376.081 142.857,376.081 143.288,376.081 143.717,376.081 144.147,376.081 144.577,376.081 145.007,374.66 145.438,374.66 145.867,374.66 146.297,374.66 146.727,374.66 147.157,374.66 147.587,373.223 148.017,373.223 148.447,373.223 148.877,373.223 149.307,373.223 149.737,373.223 150.167,371.771 150.597,371.771 151.027,371.771 151.457,371.771 151.887,371.771 152.317,371.771 152.747,370.304 153.177,370.304 153.607,370.304 154.037,370.304 154.467,370.304 154.896,370.304 155.327,368.823 155.757,368.823 156.187,368.823 156.617,368.823 157.046,368.823 157.477,368.823 157.906,367.328 158.336,367.328 158.767,367.328 159.196,367.328 159.626,367.328 160.056,367.328 160.486,365.82 160.916,365.82 161.346,365.82 161.776,365.82 162.206,365.82 162.636,365.82 163.066,364.299 163.496,364.299 163.926,364.299 164.356,364.299 164.786,364.299 165.216,362.766 165.646,362.766 166.076,362.766 166.506,362.766 166.936,362.766 167.366,362.766 167.796,361.221 168.226,361.221 168.656,361.221 169.086,361.221 169.516,361.221 169.946,361.221 170.375,359.664 170.806,359.664 171.235,359.664 171.666,359.664 172.096,359.664 172.525,359.664 172.956,358.095 173.385,358.095 173.815,358.095 174.246,358.095 174.675,358.095 175.105,358.095 175.535,356.515 175.965,356.515 176.395,356.515 176.825,356.515 177.255,356.515 177.685,356.515 178.115,354.924 178.545,354.924 178.975,354.924 179.405,354.924 179.835,354.924 180.265,354.924 180.695,353.323 181.125,353.323 181.555,353.323 181.985,353.323 182.415,353.323 182.845,353.323 183.275,351.711 183.705,351.711 184.135,351.711 184.564,351.711 184.995,351.711 185.425,351.711 185.854,350.089 186.285,350.089 186.714,350.089 187.145,350.089 187.575,350.089 188.004,350.089 188.435,348.457 188.864,348.457 189.294,348.457 189.724,348.457 190.154,348.457 190.584,348.457 191.014,346.815 191.444,346.815 191.874,346.815 192.304,346.815 192.734,346.815 193.164,346.815 193.594,345.164 194.024,345.164 194.454,345.164 194.884,345.164 195.314,345.164 195.744,343.504 196.174,343.504 196.604,343.504 197.034,343.504 197.464,343.504 197.894,343.504 198.324,341.834 198.754,341.834 199.184,341.834 199.614,341.834 200.043,341.834 200.474,341.834 200.904,340.156 201.333,340.156 201.764,340.156 202.193,340.156 202.624,340.156 203.054,340.156 203.483,338.469 203.914,338.469 204.343,338.469 204.773,338.469 205.203,338.469 205.633,338.469 206.063,336.773 206.493,336.773 206.923,336.773 207.353,336.773 207.783,336.773 208.213,336.773 208.643,335.069 209.073,335.069 209.503,335.069 209.933,335.069 210.363,335.069 210.793,335.069 211.223,333.357 211.653,333.357 212.083,333.357 212.513,333.357 212.943,333.357 213.373,333.357 213.803,331.637 214.233,331.637 214.663,331.637 215.093,331.637 215.522,331.637 215.953,331.637 216.383,329.909 216.813,329.909 217.243,329.909 217.672,329.909 218.103,329.909 218.532,329.909 218.962,328.173 219.393,328.173 219.822,328.173 220.252,328.173 220.682,328.173 221.112,328.173 221.542,326.429 221.972,326.429 222.402,326.429 222.832,326.429 223.262,326.429 223.692,324.678 224.122,324.678 224.552,324.678 224.982,324.678 225.412,324.678 225.842,324.678 226.272,322.92 226.702,322.92 227.132,322.92 227.562,322.92 227.992,322.92 228.422,322.92 228.852,321.154 229.282,321.154 229.712,321.154 230.142,321.154 230.572,321.154 231.001,321.154 231.432,319.381 231.861,319.381 232.292,319.381 232.722,319.381 233.151,319.381 233.582,319.381 234.011,317.602 234.441,317.602 234.872,317.602 235.301,317.602 235.731,317.602 236.161,317.602 236.591,315.815 237.021,315.815 237.451,315.815 237.881,315.815 238.311,315.815 238.741,315.815 239.171,314.021 239.601,314.021 240.031,314.021 240.461,314.021 240.891,314.021 241.321,314.021 241.751,312.221 242.181,312.221 242.611,312.221 243.041,312.221 243.471,312.221 243.901,312.221 244.331,310.414 244.761,310.414 245.191,310.414 245.621,310.414 246.051,310.414 246.48,310.414 246.911,308.601 247.34,308.601 247.771,308.601 248.201,308.601 248.63,308.601 249.061,308.601 249.49,306.781 249.92,306.781 250.351,306.781 250.78,306.781 251.21,306.781 251.64,304.956 252.07,304.956 252.5,304.956 252.93,304.956 253.36,304.956 253.79,304.956 254.22,303.123 254.65,303.123 255.08,303.123 255.51,303.123 255.94,303.123 256.37,303.123 256.8,301.285 257.23,301.285 257.66,301.285 258.09,301.285 258.52,301.285 258.95,301.285 259.38,299.44 259.81,299.44 260.24,299.44 260.669,299.44 261.1,299.44 261.53,299.44 261.959,297.59 262.39,297.59 262.819,297.59 263.25,297.59 263.68,297.59 264.109,297.59 264.54,295.734 264.969,295.734 265.399,295.734 265.829,295.734 266.259,295.734 266.689,295.734 267.119,293.872 267.549,293.872 267.979,293.872 268.409,293.872 268.839,293.872 269.269,293.872 269.699,292.005 270.129,292.005 270.559,292.005 270.989,292.005 271.419,292.005 271.849,292.005 272.279,290.131 272.709,290.131 273.139,290.131 273.569,290.131 273.999,290.131 274.429,290.131 274.859,288.252 275.289,288.252 275.719,288.252 276.148,288.252 276.579,288.252 277.009,288.252 277.438,286.368 277.869,286.368 278.298,286.368 278.729,286.368 279.159,286.368 279.588,284.479 280.019,284.479 280.448,284.479 280.878,284.479 281.308,284.479 281.738,284.479 282.168,282.583 282.598,282.583 283.028,282.583 283.458,282.583 283.888,282.583 284.318,282.583 284.748,280.683 285.178,280.683 285.608,280.683 286.038,280.683 286.468,280.683 286.898,280.683 287.328,278.777 287.758,278.777 288.188,278.777 288.618,278.777 289.048,278.777 289.478,278.777 289.908,276.867 290.338,276.867 290.768,276.867 291.198,276.867 291.627,276.867 292.058,276.867 292.488,274.951 292.917,274.951 293.348,274.951 293.777,274.951 294.208,274.951 294.637,274.951 295.067,273.03 295.498,273.03 295.927,273.03 296.357,273.03 296.787,273.03 297.217,273.03 297.647,271.104 298.077,271.104 298.507,271.104 298.937,271.104 299.367,271.104 299.797,271.104 300.227,269.173 300.657,269.173 301.087,269.173 301.517,269.173"/>
<polyline fill="none" stroke="#0000ff" stroke-width="1" points="83.5215,402.201 83.9512,401.727"/>
<polyline fill="none" stroke="#0000ff" stroke-width="1" points="301.947,269.173 302.377,269.173 302.807,267.237 303.237,267.237 303.667,267.237 304.097,267.237 304.527,267.237 304.957,267.237 305.387,265.297 305.817,265.297 306.247,265.297 306.677,265.297"/>
<polyline fill="none" stroke="#0000ff" stroke-width="1" points="100.72,396.979 101.15,396.979"/>
<polyline fill="none" stroke="#0000ff" stroke-width="1" points="307.106,265.297 307.537,265.297 307.967,263.352 308.396,263.352 308.827,263.352 309.256,263.352 309.687,263.352 310.116,261.401 310.546,261.401 310.977,261.401 311.406,261.401 311.836,261.401 312.266,261.401 312.696,259.447 313.126,259.447 313.556,259.447 313.986,259.447 314.416,259.447 314.846,259.447 315.276,257.487 315.706,257.487 316.136,257.487 316.566,257.487 316.996,257.487 317.426,257.487 317.856,255.523 318.286,255.523 318.716,255.523 319.146,255.523 319.576,255.523 320.006,255.523 320.436,253.555 320.866,253.555 321.296,253.555 321.726,253.555 322.156,253.555 322.585,253.555 323.016,251.583 323.445,251.583 323.875,251.583 324.306,251.583 324.735,251.583 325.166,251.583 325.595,249.605 326.025,249.605 326.456,249.605 326.885,249.605 327.315,249.605 327.745,249.605 328.175,247.624 328.605,247.624 329.035,247.624 329.465,247.624 329.895,247.624 330.325,247.624 330.755,245.637 331.185,245.637 331.615,245.637 332.045,245.637 332.475,245.637 332.905,245.637 333.335,243.647 333.765,243.647 334.195,243.647 334.625,243.647 335.055,243.647 335.485,243.647 335.915,241.653 336.345,241.653 336.774,241.653 337.205,241.653 337.635,241.653 338.064,239.654 338.495,239.654 338.924,239.654 339.354,239.654 339.785,239.654 340.214,239.654 340.645,237.651 341.074,237.651 341.504,237.651 341.934,237.651 342.364,237.651 342.794,237.651 343.224,235.644 343.654,235.644 344.084,235.644 344.514,235.644 344.944,235.644 345.374,235.644 345.804,233.633 346.234,233.633 346.664,233.633 347.094,233.633 347.524,233.633 347.954,233.633 348.384,231.618 348.814,231.618 349.244,231.618 349.674,231.618 350.104,231.618 350.534,231.618 350.964,229.599 351.394,229.599 351.824,229.599 352.253,229.599 352.684,229.599 353.114,229.599 353.543,227.575 353.974,227.575 354.403,227.575 354.833,227.575 355.263,227.575 355.693,227.575 356.124,225.548 356.553,225.548 356.983,225.548 357.413,225.548 357.843,225.548 358.273,225.548 358.703,223.517 359.133,223.517 359.563,223.517 359.993,223.517 360.423,223.517 360.853,223.517 361.283,221.482 361.713,221.482 362.143,221.482 362.573,221.482 363.003,221.482 363.433,221.482 363.863,219.444 364.293,219.444 364.723,219.444 365.153,219.444 365.583,219.444 366.013,217.401 366.443,217.401 366.873,217.401 367.303,217.401 367.732,217.401 368.163,217.401 368.593,215.355 369.022,215.355 369.453,215.355 369.882,215.355 370.313,215.355 370.742,215.355 371.172,213.305 371.603,213.305 372.032,213.305 372.462,213.305 372.892,213.305 373.322,213.305 373.752,211.251 374.182,211.251 374.612,211.251 375.042,211.251 375.472,211.251 375.902,211.251 376.332,209.194 376.762,209.194 377.192,209.194 377.622,209.194 378.052,209.194 378.482,209.194 378.912,207.133 379.342,207.133 379.772,207.133 380.202,207.133 380.632,207.133 381.062,207.133 381.492,205.068 381.922,205.068 382.352,205.068 382.782,205.068 383.211,205.068 383.642,205.068 384.071,203 384.501,203 384.932,203 385.361,203 385.792,203 386.221,203 386.651,200.929 387.082,200.929 387.511,200.929 387.941,200.929 388.371,200.929 388.801,200.929 389.231,198.853 389.661,198.853 390.091,198.853 390.521,198.853 390.951,198.853 391.381,198.853 391.811,196.774 392.241,196.774 392.671,196.774 393.101,196.774 393.531,196.774 393.961,194.692 394.391,194.692 394.821,194.692 395.251,194.692 395.681,194.692 396.111,194.692 396.541,192.606 396.971,192.606 397.401,192.606 397.831,192.606 398.261,192.606 398.69,192.606 399.121,190.518 399.55,190.518 399.98,190.518 400.411,190.518 400.84,190.518 401.271,190.518 401.7,188.425 402.13,188.425 402.56,188.425 402.99,188.425 403.42,188.425 403.85,188.425 404.28,186.33 404.71,186.33 405.14,186.33 405.57,186.33 406,186.33 406.43,186.33 406.86,184.23 407.29,184.23 407.72,184.23 408.15,184.23 408.58,184.23 409.01,184.23 409.44,182.128 409.87,182.128 410.3,182.128 410.73,182.128 411.16,182.128 411.59,182.128 412.02,180.022 412.45,180.022 412.879,180.022 413.31,180.022 413.74,180.022 414.169,180.022 414.6,177.913 415.029,177.913 415.459,177.913 415.89,177.913 416.319,177.913 416.75,177.913 417.179,175.801 417.609,175.801 418.039,175.801 418.469,175.801 418.899,175.801 419.329,175.801 419.759,173.686 420.189,173.686 420.619,173.686 421.049,173.686 421.479,173.686 421.909,173.686 422.339,171.567 422.769,171.567 423.199,171.567 423.629,171.567 424.059,171.567 424.489,169.445 424.919,169.445 425.349,169.445 425.779,169.445 426.208,169.445 426.639,169.445 427.069,167.32 427.499,167.32 427.929,167.32 428.358,167.32 428.789,167.32 429.219,167.32 429.648,165.192 430.079,165.192 430.508,165.192 430.938,165.192 431.369,165.192 431.798,165.192 432.229,163.061 432.658,163.061 433.088,163.061 433.518,163.061 433.948,163.061 434.378,163.061 434.808,160.927 435.238,160.927 435.668,160.927 436.098,160.927 436.528,160.927 436.958,160.927 437.388,158.79 437.818,158.79 438.248,158.79 438.678,158.79 439.108,158.79 439.538,158.79 439.968,156.65 440.398,156.65 440.828,156.65 441.258,156.65 441.688,156.65 442.118,156.65 442.548,154.506 442.978,154.506 443.408,154.506 443.837,154.506 444.268,154.506 444.698,154.506 445.127,152.36 445.558,152.36 445.987,152.36 446.417,152.36 446.847,152.36 447.277,152.36 447.708,150.211 448.137,150.211 448.567,150.211 448.997,150.211 449.427,150.211 449.857,150.211 450.287,148.059 450.717,148.059 451.147,148.059 451.577,148.059 452.007,148.059 452.437,145.904 452.867,145.904 453.297,145.904 453.727,145.904 454.157,145.904 454.587,145.904 455.017,143.746 455.447,143.746 455.877,143.746 456.307,143.746 456.737,143.746 457.167,143.746 457.597,141.585 458.027,141.585 458.457,141.585 458.887,141.585 459.316,141.585 459.747,141.585 460.176,139.421 460.606,139.421 461.037,139.421 461.466,139.421 461.896,139.421 462.326,139.421 462.756,137.255 463.187,137.255 463.616,137.255 464.046,137.255 464.476,137.255 464.906,137.255 465.336,135.085 465.766,135.085 466.196,135.085 466.626,135.085 467.056,135.085 467.486,135.085 467.916,132.913 468.346,132.913 468.776,132.913 469.206,132.913 469.636,132.913 470.066,132.913 470.496,130.738 470.926,130.738 471.356,130.738 471.786,130.738 472.216,130.738 472.646,130.738 473.076,128.561 473.506,128.561 473.936,128.561 474.366,128.561 474.795,128.561 475.226,128.561 475.655,126.38 476.085,126.38 476.516,126.38 476.945,126.38 477.375,126.38 477.805,126.38 478.235,124.197 478.666,124.197 479.095,124.197 479.525,124.197 479.955,124.197 480.385,122.011 480.815,122.011 481.245,122.011 481.675,122.011 482.105,122.011 482.535,122.011 482.965,119.822 483.395,119.822 483.825,119.822 484.255,119.822 484.685,119.822 485.115,119.822 485.545,117.631 485.975,117.631 486.405,117.631 486.835,117.631 487.265,117.631 487.695,117.631 488.125,115.437 488.555,115.437 488.984,115.437 489.415,115.437 489.845,115.437 490.274,115.437 490.705,113.24 491.134,113.24 491.564,113.24 491.995,113.24 492.424,113.24 492.854,113.24 493.284,111.041 493.714,111.041 494.144,111.041 494.574,111.041 495.004,111.041 495.434,111.041 495.864,108.839 496.294,108.839 496.724,108.839 497.154,108.839 497.584,108.839 498.014,108.839 498.444,106.634 498.874,106.634 499.304,106.634 499.734,106.634 500.164,106.634 500.594,106.634 501.024,104.427 501.454,104.427 501.884,104.427 502.314,104.427 502.744,104.427 503.174,104.427 503.604,102.217 504.034,102.217 504.463,102.217 504.894,102.217 505.324,102.217 505.753,102.217 506.184,100.005 506.613,100.005 507.043,100.005 507.473,100.005 507.903,100.005 508.333,97.7905"/>
<polyline fill="none" stroke="#0000ff" stroke-width="1" points="100.29,396.979 100.72,396.979"/>
<polyline fill="none" stroke="#0000ff" stroke-width="1" points="99.8604,396.979 100.29,396.979"/>
<polyline fill="none" stroke="#0000ff" stroke-width="1" points="99.4302,396.979 99.8604,396.979"/>
<polyline fill="none" stroke="#0000ff" stroke-width="1" points="99.0005,397.927 99.4302,396.979"/>
<polyline fill="none" stroke="#0000ff" stroke-width="1" points="98.5703,397.927 99.0005,397.927"/>
<polyline fill="none" stroke="#0000ff" stroke-width="1" points="98.1406,397.927 98.5703,397.927"/>
<polyline fill="none" stroke="#0000ff" stroke-width="1" points="97.7104,397.927 98.1406,397.927"/>
<polyline fill="none" stroke="#0000ff" stroke-width="1" points="97.2803,397.927 97.7104,397.927"/>
<polyline fill="none" stroke="#0000ff" stroke-width="1" points="96.8506,397.927 97.2803,397.927"/>
<polyline fill="none" stroke="#0000ff" stroke-width="1" points="96.4204,398.824 96.8506,397.927"/>
<polyline fill="none" stroke="#0000ff" stroke-width="1" points="95.9907,398.824 96.4204,398.824"/>
<polyline fill="none" stroke="#0000ff" stroke-width="1" points="95.5605,398.824 95.9907,398.824"/>
<polyline fill="none" stroke="#0000ff" stroke-width="1" points="95.1309,398.824 95.5605,398.824"/>
<polyline fill="none" stroke="#0000ff" stroke-width="1" points="94.7007,398.824 95.1309,398.824"/>
<polyline fill="none" stroke="#0000ff" stroke-width="1" points="94.2705,398.824 94.7007,398.824"/>
<polyline fill="none" stroke="#0000ff" stroke-width="1" points="93.8408,399.663 94.2705,398.824"/>
<polyline fill="none" stroke="#0000ff" stroke-width="1" points="93.4106,399.663 93.8408,399.663"/>
<polyline fill="none" stroke="#0000ff" stroke-width="1" points="92.981,399.663 93.4106,399.663"/>
<polyline fill="none" stroke="#0000ff" stroke-width="1" points="83.0913,402.201 83.5215,402.201"/>
<polyline fill="none" stroke="#0000ff" stroke-width="1" points="82.6616,402.201 83.0913,402.201"/>
<polyline fill="none" stroke="#0000ff" stroke-width="1" points="82.2314,402.201 82.6616,402.201"/>
<polyline fill="none" stroke="#0000ff" stroke-width="1" points="81.8013,402.201 82.2314,402.201"/>
<polyline fill="none" stroke="#0000ff" stroke-width="1" points="81.3716,402.201 81.8013,402.201"/>
<polyline fill="none" stroke="#0000ff" stroke-width="1" points="80.9414,402.5 81.3716,402.201"/>
<polyline fill="none" stroke="#0000ff" stroke-width="1" points="80.5117,402.5 80.9414,402.5"/>
<polyline fill="none" stroke="#0000ff" stroke-width="1" points="80.0815,402.5 80.5117,402.5"/>
<polyline fill="none" stroke="#0000ff" stroke-width="1" points="79.6519,402.5 80.0815,402.5"/>
<polyline fill="none" stroke="#0000ff" stroke-width="1" points="92.5508,399.663 92.981,399.663"/>
<polyline fill="none" stroke="#0000ff" stroke-width="1" points="92.1206,399.663 92.5508,399.663"/>
<polyline fill="none" stroke="#0000ff" stroke-width="1" points="91.6909,399.663 92.1206,399.663"/>
<polyline fill="none" stroke="#0000ff" stroke-width="1" points="91.2607,400.436 91.6909,399.663"/>
<polyline fill="none" stroke="#0000ff" stroke-width="1" points="90.8311,400.436 91.2607,400.436"/>
<polyline fill="none" stroke="#0000ff" stroke-width="1" points="90.4009,400.436 90.8311,400.436"/>
<polyline fill="none" stroke="#0000ff" stroke-width="1" points="89.9707,400.436 90.4009,400.436"/>
<polyline fill="none" stroke="#0000ff" stroke-width="1" points="89.541,400.436 89.9707,400.436"/>
<polyline fill="none" stroke="#0000ff" stroke-width="1" points="89.1108,400.436 89.541,400.436"/>
<polyline fill="none" stroke="#0000ff" stroke-width="1" points="88.6812,401.129 89.1108,400.436"/>
<polyline fill="none" stroke="#0000ff" stroke-width="1" points="88.251,401.129 88.6812,401.129"/>
<polyline fill="none" stroke="#0000ff" stroke-width="1" points="87.8213,401.129 88.251,401.129"/>
<polyline fill="none" stroke="#0000ff" stroke-width="1" points="87.3911,401.129 87.8213,401.129"/>
<polyline fill="none" stroke="#0000ff" stroke-width="1" points="86.9609,401.129 87.3911,401.129"/>
<polyline fill="none" stroke="#0000ff" stroke-width="1" points="86.5313,401.129 86.9609,401.129"/>
<polyline fill="none" stroke="#0000ff" stroke-width="1" points="86.1011,401.727 86.5313,401.129"/>
<polyline fill="none" stroke="#0000ff" stroke-width="1" points="85.6714,401.727 86.1011,401.727"/>
<polyline fill="none" stroke="#0000ff" stroke-width="1" points="85.2412,401.727 85.6714,401.727"/>
<polyline fill="none" stroke="#0000ff" stroke-width="1" points="84.8115,401.727 85.2412,401.727"/>
<polyline fill="none" stroke="#0000ff" stroke-width="1" points="84.3813,401.727 84.8115,401.727"/>
<polyline fill="none" stroke="#0000ff" stroke-width="1" points="79.2217,402.5 79.6519,402.5"/>
<polyline fill="none" stroke="#0000ff" stroke-width="1" points="78.7915,402.5 79.2217,402.5"/>
<polyline fill="none" stroke="#0000ff" stroke-width="1" points="306.677,265.297 307.106,265.297"/>
<polyline fill="none" stroke="#0000ff" stroke-width="1" points="83.9512,401.727 84.3813,401.727"/>
<polyline fill="none" stroke="#0000ff" stroke-width="1" points="301.517,269.173 301.947,269.173"/>
<polyline fill="none" stroke="#000000" stroke-width="1" points="76.25,57.5 76.25,57.5"/>
<polyline fill="none" stroke="#000000" stroke-width="1" points="533.75,402.5 533.75,402.5"/>
<polyline fill="none" stroke="#000000" stroke-width="1" points="533.75,57.5 533.75,57.5"/>
<polyline fill="none" stroke="#000000" stroke-width="1" points="533.75,402.5 76.25,402.5 76.25,57.5"/>
<polyline fill="none" stroke="#000000" stroke-width="1" points="533.75,57.5 76.25,57.5"/>
<polyline fill="none" stroke="#000000" stroke-width="1" points="533.75,57.5 533.75,402.5"/>
<text fill="#000000" x="269" y="48" transform="rotate(0, 269, 48)" font-size="10" font-family="SansSerif" font-style="normal" font-weight="normal">Logarithm of n!</text>
</g>
</svg>
